<?xml version="1.0" encoding="UTF-8" standalone="no"?>
<!-- Created with Inkscape (http://www.inkscape.org/) -->

<svg
  version="1.1"
  id="svg2"
  xml:space="preserve"
  width="960"
  height="960"
  viewBox="960 0 960 960"
  sodipodi:docname="026efd213ee97542bb207ad4a684115e.eps"
  xmlns:inkscape="http://www.inkscape.org/namespaces/inkscape"
  xmlns:sodipodi="http://sodipodi.sourceforge.net/DTD/sodipodi-0.dtd"
  xmlns:xlink="http://www.w3.org/1999/xlink"
  xmlns="http://www.w3.org/2000/svg"
  xmlns:svg="http://www.w3.org/2000/svg">
    <sodipodi:namedview
     id="namedview4"
     pagecolor="#ffffff"
     bordercolor="#666666"
     borderopacity="1.0"
     inkscape:pageshadow="2"
     inkscape:pageopacity="0.0"
     inkscape:pagecheckerboard="0" /><g
     id="g8"
     inkscape:groupmode="layer"
     inkscape:label="ink_ext_XXXXXX"
     transform="matrix(1.3333333,0,0,-1.3333333,0,959.99998)"><g
       id="g10"
       transform="scale(0.1)"><g
         id="g32"><path
         d="m 10575.7,4088.33 99.4,135.71 c 75.2,123.67 74.8,218.05 37.3,281.58 -109.6,185.63 -512.6,86.27 -361,-243.75 93.3,-203.05 264.3,-308.63 491,-287.47 375.6,35.08 327.7,364.19 156.4,338.24 -109.8,-16.64 -193.5,-187.21 -246.2,-278.2 -66.2,4.6 -125.3,22.8 -176.9,53.89 z m 248.2,-53.74 39.4,68.63 c 53.8,101.14 105.3,142.59 144.6,148.54 90.1,13.66 108.8,-196.94 -184,-217.17 z m -298,89.82 c -48,41.1 -87.6,95.71 -118.6,163.03 -118.9,259.03 181.4,307.01 252.3,186.91 61.9,-104.98 -65.9,-258.76 -133.7,-349.94 z m -457.7,-929.09 c 109.2,-42.72 235.1,-75.81 352.5,-84.76 17.4,-17.08 65.3,-65.43 54.3,-89.28 -12.4,-26.78 -77.2,-28.37 -159.6,-15.95 -23.3,26.71 -53,53.58 -86.3,78.87 -70.3,53.35 -337.72,226.38 -394.15,97.64 -29.89,-68.22 96.12,-125.55 157.74,-150.95 11.61,-88.18 60.11,-155.05 160.61,-188.07 71,-23.3 249.5,-40.63 209.8,85.16 -18.7,1.19 -40.7,3.41 -66,6.64 50.8,-77.95 -92.7,-43.81 -124.5,-33.37 -58,19.06 -92.6,55.01 -108.8,103.12 98.9,-33.5 228.3,-64.29 330.7,-62.44 129.6,2.36 184.1,55.78 100.7,167.01 168.4,7.33 211.5,93.11 92.6,235.53 62.6,0.94 169.8,2.54 164.6,83.46 -3.8,60.53 -74,138.81 -142,200.28 -13.4,-23.42 -24.5,-41.11 -33.2,-53.05 54.6,-50.23 89.7,-93.18 105.6,-125.63 30.9,-63.07 -113.2,-45.4 -153.5,-43.02 -30.6,29.29 -65.3,58.48 -102.1,86.32 -86.5,65.35 -210.5,142.59 -315.5,176.96 -68.4,22.42 -209.59,33.21 -193.56,-78.42 9.71,-67.61 105.56,-118.41 177.76,-148.46 -3.5,-7.37 -6.9,-14.74 -10.3,-22.06 19,-7.79 37.7,-16.2 56.1,-25.2 3.9,8.42 7.8,16.88 11.9,25.36 101.4,-35.29 219.1,-60.8 324,-71.31 -19.3,17.96 -47.4,42.4 -84.6,73.31 -47.5,8.32 -95.7,19.21 -142,32.04 -64,17.76 -137.9,43.32 -194.8,74.7 -44.8,24.73 -74.05,49.22 -77.08,70.36 -6.79,47.21 95.88,16.97 113.38,11.25 23.4,-7.68 48.7,-18 75,-30.39 -12.7,-22.75 -25,-45.49 -36.7,-68.16 19.1,-7.66 38.6,-14.79 58.1,-21.36 10.7,20.43 21.9,40.96 33.3,61.5 103.2,-57.6 198,-127.28 282.6,-205.66 47.5,-43.91 106.9,-112.83 89.1,-145 -17.2,-30.9 -75.4,-39.53 -151.2,-33.91 -95.3,94.84 -294.4,230.9 -441.5,263.5 -73.21,16.24 -129.63,4.57 -151.26,-49.75 -34.01,-85.41 148.16,-159.37 218.26,-186.81 z m 54.1,597.16 c 198.1,314.45 -133.46,687.01 112.8,1101.95 223.2,376.11 707.8,501.84 1079.6,287.17 371.8,-214.68 505.2,-697.2 291.1,-1078.55 -207.9,-370.27 -598.6,-331.14 -819.4,-543.53 l 42.6,-44.32 c 204.7,196.91 614.2,167.5 830.7,558.38 229.5,414.29 87.3,927.61 -314.2,1161.16 -199.8,116.26 -437.7,138.65 -644.8,83.64 -209.9,-55.73 -398.8,-190.7 -518.1,-391.98 -259.45,-431.56 66.9,-816.72 -112.4,-1101.33 z m 356,267.01 c -84,-116.5 -185,-262.66 -273.2,-412.76 18.5,-8.93 36.7,-18.34 54.7,-28.21 86.4,146.57 185.5,289.92 268.1,404.61 -17.4,10.94 -34,23.09 -49.6,36.36 z m 68.8,-380.89 c -27,17.84 -56.7,30.11 -84.2,35.3 -216.3,40.94 -30.8,-359.74 133.5,-73.23 l 181.4,314.11 c -23,-0.02 -46,1.37 -68.8,4.18 z m -116.5,-51.52 c -21.2,69.99 64,13.67 84.8,-0.86 -30.8,-43.01 -67.9,-54.96 -84.8,0.86 z m -121.8,-438.56 c -103.5,21.83 -282.1,75.61 -370.56,140.67 -70.57,51.92 2.66,53 49.43,42.64 20.63,-4.59 43.43,-11.93 67.43,-21.46 -7.5,-18.56 -14.4,-36.9 -20.8,-54.97 22.3,-9.74 41.2,-17.71 56.8,-23.94 6.2,17.68 12.9,35.64 20.2,53.85 77.4,-38.18 155.3,-88.8 224.6,-142.22 -9,1.7 -18,3.51 -27.1,5.43 z m -108.3,-159.87 c -79.9,19.78 -196.8,56.69 -268.39,100.28 -75.97,46.25 -25.05,43.66 29.79,28.65 10.73,-2.93 22,-6.62 33.68,-10.99 -1.71,-11.26 -3.04,-22.32 -3.98,-33.17 24.5,-10.34 44.8,-18.6 60.9,-24.78 0.3,10.38 1,21.05 2.2,31.99 51.8,-25.84 99.9,-56.73 145.8,-91.98"
         style="fill:#32c7f4;fill-opacity:1;fill-rule:evenodd;stroke:none"
         id="path58" />=]
         <text
          x="0" y="0"
          fill="#000" font-size="1000" font-family="Arial" font-weight="bold"
          transform="scale(1,-0.9) translate(7800,-2000)"
         >
          Creativision
         </text>
        </g></g></g></svg>